<?xml version="1.0" encoding="iso-8859-1"?>
<!-- Generator: Adobe Illustrator 19.1.0, SVG Export Plug-In . SVG Version: 6.00 Build 0)  -->
<svg version="1.1" id="Capa_1" xmlns="http://www.w3.org/2000/svg" xmlns:xlink="http://www.w3.org/1999/xlink" x="0px" y="0px"
	 viewBox="0 0 479.5 479.5" style="enable-background:new 0 0 479.5 479.5;" xml:space="preserve">
<g>
	<g>
		<path d="M83.3,0C48.1,0,19.5,28.6,19.5,63.8s28.6,63.8,63.8,63.8s63.8-28.6,63.8-63.8S118.5,0,83.3,0z M83.3,100.5
			C63,100.5,46.5,84,46.5,63.7S63,26.9,83.3,26.9s36.8,16.5,36.8,36.8S103.6,100.5,83.3,100.5z"/>
		<path d="M83.3,175.9c-35.2,0-63.8,28.6-63.8,63.8s28.6,63.8,63.8,63.8s63.8-28.6,63.8-63.8S118.5,175.9,83.3,175.9z M83.3,276.5
			c-20.3,0-36.8-16.5-36.8-36.8s16.5-36.8,36.8-36.8s36.8,16.5,36.8,36.8S103.6,276.5,83.3,276.5z"/>
		<path d="M83.3,351.9c-35.2,0-63.8,28.6-63.8,63.8s28.6,63.8,63.8,63.8s63.8-28.6,63.8-63.8S118.5,351.9,83.3,351.9z M83.3,452.4
			c-20.3,0-36.8-16.5-36.8-36.8s16.5-36.8,36.8-36.8s36.8,16.5,36.8,36.8S103.6,452.4,83.3,452.4z"/>
		<path d="M207.2,74.1h239.3c7.5,0,13.5-6,13.5-13.5s-6-13.5-13.5-13.5H207.2c-7.5,0-13.5,6-13.5,13.5S199.8,74.1,207.2,74.1z"/>
		<path d="M443.3,226.2H204c-7.5,0-13.5,6-13.5,13.5s6,13.5,13.5,13.5h239.3c7.5,0,13.5-6,13.5-13.5S450.7,226.2,443.3,226.2z"/>
	</g>
	<path d="M204,429.2h239.3c7.5,0,13.5-6,13.5-13.5s-6-13.5-13.5-13.5H204c-7.5,0-13.5,6-13.5,13.5S196.5,429.2,204,429.2z"/>
</g>
<g>
</g>
<g>
</g>
<g>
</g>
<g>
</g>
<g>
</g>
<g>
</g>
<g>
</g>
<g>
</g>
<g>
</g>
<g>
</g>
<g>
</g>
<g>
</g>
<g>
</g>
<g>
</g>
<g>
</g>
</svg>
